<svg id="Capa_1" data-name="Capa 1" xmlns="http://www.w3.org/2000/svg" viewBox="0 0 351.15 129.64"><defs><style>.cls-1{fill:#99d7ff;}.cls-2{fill:#0a4cfe;}.cls-3{fill:#0033bf;}</style></defs><title>aviocito</title><path class="cls-1" d="M463.1,265.93a3.67,3.67,0,0,1-1.84,1c-3.52.72-7.12,1.51-10.69,2.36a3.69,3.69,0,0,1-1.7-7.18c3.64-.86,7.31-1.67,10.91-2.4A3.69,3.69,0,0,1,463.1,265.93Z" transform="translate(-300.52 -203.98)"/><path class="cls-1" d="M422,276.77a3.64,3.64,0,0,1-1.44.87c-6.75,2.18-13.61,4.59-20.38,7.17a3.69,3.69,0,1,1-2.63-6.9c6.89-2.62,13.87-5.08,20.74-7.29A3.69,3.69,0,0,1,422,276.77Zm-49.56,19.46a3.7,3.7,0,0,1-1,.71c-6.47,3-13,6.19-19.43,9.51a3.69,3.69,0,1,1-3.39-6.55c6.52-3.37,13.16-6.62,19.72-9.66A3.69,3.69,0,0,1,372.42,296.23ZM325.33,321.1a3.79,3.79,0,0,1-.7.54c-6.09,3.62-12.29,7.46-18.42,11.4a3.69,3.69,0,0,1-4-6.2c6.2-4,12.48-7.88,18.65-11.55A3.69,3.69,0,0,1,325.33,321.1Z" transform="translate(-300.52 -203.98)"/><polygon class="cls-2" points="351.15 1.4 206.73 35.09 206.66 79.45 351.15 1.4"/><polygon class="cls-1" points="272.86 102.79 232.6 59 351.15 1.4 272.86 102.79"/><polygon class="cls-1" points="172.23 0 351.15 1.4 206.73 35.09 172.23 0"/><polygon class="cls-3" points="206.66 79.45 232.6 59 238.45 65.36 206.66 79.45"/></svg>