<svg id="Capa_1" data-name="Capa 1" xmlns="http://www.w3.org/2000/svg" viewBox="0 0 547.98 462"><defs><style>.cls-1{fill:#69d1f4;}.cls-2{fill:#1b3753;}.cls-3{fill:#4b46c7;}</style></defs><title>logocafNEW</title><circle class="cls-1" cx="321.87" cy="226.11" r="226.11"/><path class="cls-2" d="M661,287c0,127.58-103.42,231-231,231S199,414.58,199,287,302.43,56,430,56,661,159.42,661,287" transform="translate(-199.01 -56)"/><path class="cls-1" d="M353.74,403.65c-34.15-20.07-55.18-49.91-57.62-89.14-2.58-41.6-.64-83.48-0.92-125.24,0-5.83,3-5.83,7.23-5.82,36.67,0.07,73.33,0,110,0q56.89,0.05,113.78.21c-0.45,3.87-3.68,2.8-5.88,3.09-34.82,4.71-60.32,34.23-60.7,69.5-0.34,31.57,15,52.84,42.08,67,2.68,1.4,5.81,2.07,7.71,4.73,1.36,2.06,2.26,5.16,5.51,4.23,6.05-1.74,6.37,2.56,5.45,5.87-2.53,9.13-.37,20.36-10.92,26.2a5.52,5.52,0,0,0-1.72,2.49c-9.68,19.71-28.89,28.3-46.27,38.63-7.24,4.3-16.84,4.29-24.38,8.49A37.47,37.47,0,0,1,419.9,419c-14.51.56-28.87-.37-42-7.27C370.22,407.68,362.65,403.8,353.74,403.65Z" transform="translate(-199.01 -56)"/><path class="cls-1" d="M353.74,403.65c5-1.94,9.76-1.82,14.55,1,5,3,10.84,4.77,15.2,8.42,4.9,4.11,10.75,2,15.77,3.1,11.3,2.51,23.72,5.26,35-3.18,4.85-3.61,11.58-5.25,17.72-6.44,9.86-1.93,17.07-8.44,25.53-12.78s13.94-12.81,22.81-17c3.26-1.56,2.55-8.57,6.22-11.9,0.87-.79.93-2.87,1.79-3.19,14.25-5.27,4.32-19.53,11.38-27.83-6.19,1.75-10.82,2.2-11.5-5.22,3.32-2.57,6.9-1,10.29-.42,4.84,0.88,7.27-1.12,8.06-5.66a128,128,0,0,0,2.27-22q-0.1-53.88,0-107.77c0-3-.55-6.14,1-9,37.92-1.89,72.59,30.66,75.11,68.43,2.92,43.75-32.39,78.91-72,79.4-4.63.06-5.94,2.34-7.21,6.07-13.53,39.65-40.23,66.2-80.45,77.89C413.4,424.86,382.5,421.28,353.74,403.65Z" transform="translate(-199.01 -56)"/><path class="cls-3" d="M529.86,183.78c1.47,2.58,1.17,5.42,1.17,8.21q0,56.57,0,113.13c0,6.9-1.49,13.62-2.47,20.41-0.77,5.41-3.25,6.86-8.36,5.42-3.89-1.1-8-1.57-11.94-2.31-16.84-7-31.11-17.14-40.61-33.17-29-49,6-108.11,55.78-110.84a11.2,11.2,0,0,0,2.8-.93Z" transform="translate(-199.01 -56)"/></svg>